<?xml version="1.0" ?><svg id="Слой_1" style="enable-background:new 0 0 512 512;" version="1.1" viewBox="0 0 512 512" xml:space="preserve" xmlns="http://www.w3.org/2000/svg" xmlns:xlink="http://www.w3.org/1999/xlink"><style type="text/css">
	.st0{fill:none;stroke:#59405A;stroke-width:15;stroke-linecap:round;stroke-linejoin:round;stroke-miterlimit:10;}
	.st1{fill:#2C8283;}
	.st2{fill:#B1D394;}
</style><path class="st0" d="M252.5,464.5L47.2,228c-6.1-7-6.1-18.4,0-25.4L180,49.7c6.1-7,16-7,22.1,0l22.2,22.2"/><path class="st0" d="M253.1,462.2L104.7,174.8c-4.4-8.5-2-19.6,5.4-24.6L271.4,39.5c7.4-5.1,17-2.3,21.4,6.3l12.4,24"/><path class="st0" d="M251.3,456.2L168,135.8c-2.5-9.5,2.2-19.5,10.5-22.4l179.8-62.1c8.3-2.8,16.9,2.6,19.4,12.1l9.6,36.9"/><path class="st0" d="M451.7,470.7H268.1c-9.8,0-17.7-7.9-17.7-17.7V118c0-9.8,7.9-17.7,17.7-17.7h183.6c9.8,0,17.7,7.9,17.7,17.7  v335.1C469.3,462.8,461.4,470.7,451.7,470.7z"/><g><path class="st1" d="M356.1,320.3v21.9h-64.4v-18.4l37-43c1.5-1.6,2.2-3.4,2.2-5.3c0-2.1-0.7-3.8-2.1-5.2c-1.4-1.4-3.2-2.1-5.3-2.1   h-7.7c-2.5,0-4.4,1-5.8,2.9l-4.7,6.2L301,271c-0.7-1.1-1.8-2.7-3.2-4.8c-1.4-2.1-2.4-3.8-3.2-5.2l-2.1-3.7l3-2.9   c5.4-5.2,11.8-7.9,19.3-8.1h0.1h9.3c3.8,0.1,7.5,0.9,10.9,2.4c3.4,1.5,6.5,3.6,9.1,6.4c2.6,2.7,4.7,5.9,6.2,9.4   c1.5,3.5,2.2,7.2,2.2,11c0,3.4-0.6,6.7-1.8,9.9c-1.2,3.2-2.9,6.1-5.1,8.8l-0.1,0.1l-23.6,26H356.1z"/><path class="st1" d="M435,262.6c2.6,4.6,4.1,9.5,4.5,14.9c0.5,5.4,0.7,11,0.7,16.9v9h-0.1c-0.2,4.1-0.6,8-1.2,11.8   c-0.6,3.7-1.9,7.3-3.8,10.7c-3.3,5.8-8,10-14.2,12.7c-2.2,1-4.6,1.8-7.1,2.3c-2.6,0.5-5.3,1-8.4,1.2h-0.5h-0.4   c-3-0.3-5.8-0.7-8.4-1.2c-2.6-0.5-4.9-1.3-7.1-2.3c-6.2-2.7-11-7-14.2-12.7c-1.3-2.3-2.3-4.7-3-7.2c-0.7-2.5-1.3-5.1-1.6-7.7   c-0.3-2.6-0.5-5.4-0.5-8.2c0-2.8-0.1-5.7-0.1-8.6v-9h0.1c0.2-4,0.6-7.9,1.2-11.7c0.6-3.8,1.9-7.4,3.8-10.8c3.3-5.7,8-9.9,14.2-12.6   c2.2-1,4.6-1.8,7.1-2.4c2.6-0.6,5.3-1,8.4-1.3h0.4h0.5c3,0.3,5.8,0.7,8.4,1.3c2.6,0.6,4.9,1.4,7.1,2.4   C427,252.7,431.7,256.9,435,262.6z M401.3,269.9c0.2-0.7,0-1-0.7-0.8c-2.6,0.7-4.4,1.5-5.3,2.4c-0.9,0.9-1.4,1.5-1.7,2   c-1.2,2.1-1.9,5-2.1,8.6c-0.2,3.7-0.3,7.6-0.3,11.9v0.1c0,0.4,0.1,0.6,0.4,0.6c0.3,0,0.5-0.1,0.7-0.3L401.3,269.9z M406,319.2   c-0.2,0.2-0.2,0.4,0,0.5c0.2,0.2,0.4,0.3,0.5,0.3c1.8-0.3,3.3-0.6,4.5-1.1c1.1-0.5,2.1-0.9,2.7-1.4c0.7-0.5,1.2-1,1.5-1.4   c0.3-0.4,0.6-0.8,0.8-1c1.2-2.1,1.9-5,2.1-8.6c0.2-3.7,0.3-7.6,0.3-11.9v-0.1V289c0-0.4-0.2-0.6-0.5-0.6c-0.3,0-0.5,0.1-0.6,0.3   L406,319.2z"/></g><path class="st0" d="M125.9,215.7c0,14.6-11.8,26.4-26.4,26.4S73,230.3,73,215.7s11.8-26.4,26.4-26.4c4.1,0,7.9,0.9,11.4,2.6"/><g><g><path class="st2" d="M297.7,153.4v4.4h-12.9v-3.7l7.4-8.6c0.3-0.3,0.4-0.7,0.4-1.1c0-0.4-0.1-0.8-0.4-1c-0.3-0.3-0.6-0.4-1.1-0.4    h-1.5c-0.5,0-0.9,0.2-1.1,0.6l-0.9,1.2l-0.9-1.3c-0.1-0.2-0.4-0.5-0.6-1c-0.3-0.4-0.5-0.8-0.6-1l-0.4-0.7l0.6-0.6    c1.1-1,2.4-1.6,3.9-1.6h0h1.9c0.8,0,1.5,0.2,2.2,0.5s1.3,0.7,1.8,1.3c0.5,0.5,0.9,1.2,1.2,1.9c0.3,0.7,0.4,1.4,0.4,2.2    c0,0.7-0.1,1.3-0.4,2c-0.2,0.6-0.6,1.2-1,1.8l0,0l-4.7,5.2H297.7z"/><path class="st2" d="M313.5,141.9c0.5,0.9,0.8,1.9,0.9,3c0.1,1.1,0.1,2.2,0.1,3.4v1.8h0c0,0.8-0.1,1.6-0.2,2.4    c-0.1,0.7-0.4,1.5-0.8,2.1c-0.7,1.1-1.6,2-2.8,2.5c-0.4,0.2-0.9,0.4-1.4,0.5c-0.5,0.1-1.1,0.2-1.7,0.2h-0.1h-0.1    c-0.6-0.1-1.2-0.1-1.7-0.2s-1-0.3-1.4-0.5c-1.2-0.5-2.2-1.4-2.8-2.5c-0.3-0.5-0.5-0.9-0.6-1.4c-0.1-0.5-0.3-1-0.3-1.5    c-0.1-0.5-0.1-1.1-0.1-1.6c0-0.6,0-1.1,0-1.7v-1.8h0c0-0.8,0.1-1.6,0.2-2.3c0.1-0.8,0.4-1.5,0.8-2.1c0.7-1.1,1.6-2,2.8-2.5    c0.4-0.2,0.9-0.4,1.4-0.5c0.5-0.1,1.1-0.2,1.7-0.3h0.1h0.1c0.6,0.1,1.2,0.1,1.7,0.3c0.5,0.1,1,0.3,1.4,0.5    C311.9,139.9,312.8,140.7,313.5,141.9z M306.7,143.3c0-0.1,0-0.2-0.1-0.2c-0.5,0.1-0.9,0.3-1.1,0.5c-0.2,0.2-0.3,0.3-0.3,0.4    c-0.2,0.4-0.4,1-0.4,1.7c0,0.7-0.1,1.5-0.1,2.4v0c0,0.1,0,0.1,0.1,0.1c0.1,0,0.1,0,0.1-0.1L306.7,143.3z M307.7,153.2    c0,0,0,0.1,0,0.1c0,0,0.1,0.1,0.1,0.1c0.4-0.1,0.7-0.1,0.9-0.2c0.2-0.1,0.4-0.2,0.5-0.3c0.1-0.1,0.2-0.2,0.3-0.3    c0.1-0.1,0.1-0.2,0.1-0.2c0.2-0.4,0.4-1,0.4-1.7s0.1-1.5,0.1-2.4v0v-1.1c0-0.1,0-0.1-0.1-0.1c-0.1,0-0.1,0-0.1,0.1L307.7,153.2z"/></g></g><g><g><path class="st2" d="M213.4,141.2l5.8,18.7l-4.3,1.3l-4.2-13.4l-2.7,0.8l0.7-6L213.4,141.2z"/><path class="st2" d="M230.7,140.5l-7.8,2.4l0.9,2.9l2.1-0.7c0.8-0.3,1.6-0.3,2.5-0.2c0.8,0.1,1.6,0.3,2.3,0.7    c0.6,0.4,1.2,0.9,1.7,1.5c0.5,0.6,0.8,1.3,1.1,2c0.2,0.8,0.3,1.6,0.2,2.4c-0.1,0.8-0.3,1.5-0.7,2.2c-0.4,0.7-0.8,1.3-1.4,1.8    c-0.6,0.5-1.3,0.9-2.1,1.1l-3.1,1c-0.8,0.3-1.7,0.3-2.5,0.2c-0.9-0.1-1.6-0.4-2.4-0.8l-1-0.6l0.6-1c0.2-0.3,0.4-0.6,0.6-0.9    c0.2-0.3,0.4-0.6,0.5-0.9l0.6-1.1l1,0.7c0.4,0.3,0.8,0.3,1.3,0.2l3.1-1c0.4-0.1,0.7-0.4,0.9-0.7s0.2-0.7,0.1-1.1    c-0.1-0.4-0.4-0.7-0.8-0.9c-0.4-0.2-0.8-0.3-1.1-0.1l-6.4,2l-3.6-11.5l12.1-3.7L230.7,140.5z"/></g></g><g><g><path class="st2" d="M147.2,171.8l11.1,16.3l-3.7,2.5l-8-11.7l-2.3,1.6l-1.1-6L147.2,171.8z"/><path class="st2" d="M162.5,165.4c1,0.5,1.8,1.2,2.5,2c0.7,0.9,1.4,1.8,2.1,2.8l1,1.5l0,0c0.4,0.7,0.8,1.4,1.2,2.1    c0.3,0.7,0.5,1.5,0.6,2.3c0.1,1.4-0.2,2.6-0.9,3.8c-0.3,0.4-0.6,0.8-0.9,1.2c-0.4,0.4-0.8,0.8-1.3,1.2l-0.1,0.1l-0.1,0    c-0.5,0.3-1.1,0.6-1.6,0.8c-0.5,0.2-1,0.3-1.5,0.4c-1.4,0.3-2.7,0.1-3.9-0.5c-0.5-0.2-0.9-0.5-1.3-0.9c-0.4-0.3-0.8-0.7-1.2-1.1    c-0.4-0.4-0.7-0.9-1-1.3c-0.3-0.5-0.7-1-1-1.5l-1-1.5l0,0c-0.4-0.7-0.8-1.4-1.1-2.1c-0.3-0.7-0.5-1.5-0.6-2.3    c-0.1-1.3,0.2-2.6,1-3.8c0.3-0.4,0.6-0.8,0.9-1.2c0.4-0.4,0.8-0.8,1.3-1.2l0.1,0l0.1-0.1c0.5-0.3,1.1-0.6,1.6-0.7    c0.5-0.2,1-0.3,1.5-0.4C160,164.7,161.3,164.9,162.5,165.4z M157.6,170.6c-0.1-0.1-0.1-0.2-0.2-0.1c-0.4,0.4-0.6,0.8-0.6,1    c0,0.2-0.1,0.4-0.1,0.5c0,0.5,0.3,1.1,0.7,1.7c0.4,0.6,0.8,1.3,1.3,2.1l0,0c0,0.1,0.1,0.1,0.1,0.1c0.1,0,0.1-0.1,0.1-0.1    L157.6,170.6z M164.2,178.5C164.1,178.5,164.2,178.5,164.2,178.5c0.1,0.1,0.2,0.1,0.2,0.1c0.3-0.3,0.5-0.5,0.6-0.7    c0.1-0.2,0.2-0.4,0.3-0.6c0.1-0.2,0.1-0.3,0.1-0.4c0-0.1,0-0.2,0-0.3c0-0.5-0.3-1.1-0.7-1.7c-0.4-0.6-0.8-1.3-1.3-2.1l0,0    l-0.6-0.9c0-0.1-0.1-0.1-0.2,0c-0.1,0-0.1,0.1-0.1,0.1L164.2,178.5z"/></g></g><g><g><path class="st2" d="M97.5,217.8c0.7,0,1.4,0.1,2.1,0.4c0.7,0.3,1.2,0.6,1.8,1.1c0.6,0.5,1.1,1.2,1.4,1.9c0.3,0.7,0.5,1.4,0.5,2.2    c0,0.8-0.1,1.5-0.3,2.2c-0.3,0.7-0.7,1.4-1.2,2l-1.2,1.4c-0.6,0.6-1.3,1.1-2.2,1.5c-0.9,0.3-2,0.5-3.4,0.4c0-0.5,0-0.9,0-1.2    s0-0.7,0-1c0-0.3,0-0.7,0-1c0-0.4,0-0.8,0-1.2l1.2,0.1c0.5,0,0.9-0.2,1.1-0.5l1.2-1.4c0.3-0.3,0.4-0.6,0.4-1c0-0.4-0.2-0.7-0.5-1    c-0.3-0.3-0.7-0.4-1.1-0.4c-0.4,0-0.8,0.2-1,0.4l-2,2.2l-3.3-3l1.9-2.1c0.3-0.3,0.4-0.6,0.3-1.1c0-0.4-0.2-0.8-0.5-1.1    s-0.7-0.4-1.1-0.4c-0.4,0-0.7,0.2-1,0.5l-1,1.1c-0.3,0.4-0.5,0.8-0.4,1.3l0.3,1.5c-0.8-0.1-1.5-0.2-2.3-0.4    c-0.8-0.1-1.6-0.3-2.4-0.5l0-0.8c0-0.6,0-1.1,0.1-1.6c0.1-0.5,0.3-1,0.6-1.4c0.2-0.2,0.4-0.4,0.6-0.7c0.2-0.3,0.5-0.6,0.7-0.8    c0.3-0.3,0.5-0.5,0.8-0.8c0.2-0.3,0.5-0.5,0.7-0.7c0.4-0.4,0.9-0.6,1.5-0.8c0.6-0.2,1.1-0.2,1.7-0.3c0.8,0,1.5,0.1,2.2,0.4    c0.7,0.3,1.4,0.6,1.9,1.2C96.6,215.2,97.2,216.4,97.5,217.8z"/><path class="st2" d="M104.4,200.8c1,0.2,2,0.7,2.8,1.4c0.9,0.7,1.7,1.4,2.6,2.2l1.3,1.2l0,0c0.6,0.6,1.1,1.2,1.6,1.8    c0.5,0.6,0.8,1.3,1.1,2c0.4,1.3,0.4,2.5,0,3.8c-0.1,0.5-0.4,0.9-0.6,1.4c-0.3,0.5-0.6,0.9-1,1.4l-0.1,0.1l-0.1,0.1    c-0.4,0.4-0.9,0.8-1.3,1.1c-0.4,0.3-0.9,0.6-1.3,0.7c-1.2,0.6-2.5,0.7-3.8,0.4c-0.5-0.1-1-0.3-1.5-0.5c-0.5-0.2-0.9-0.5-1.4-0.8    c-0.4-0.3-0.9-0.7-1.3-1c-0.4-0.4-0.9-0.8-1.3-1.2l-1.3-1.2l0,0c-0.6-0.6-1.1-1.2-1.6-1.8c-0.5-0.6-0.8-1.3-1.1-2    c-0.4-1.3-0.4-2.5,0.1-3.8c0.1-0.5,0.4-0.9,0.6-1.4c0.3-0.5,0.6-0.9,0.9-1.4l0.1-0.1L98,203c0.4-0.4,0.9-0.8,1.3-1.1    c0.4-0.3,0.9-0.5,1.3-0.7C101.9,200.6,103.2,200.5,104.4,200.8z M100.9,206.8c-0.1-0.1-0.2-0.1-0.2,0c-0.3,0.5-0.4,0.9-0.4,1.1    c0,0.2,0,0.4,0.1,0.5c0.2,0.5,0.5,1,1,1.5c0.5,0.5,1.1,1.1,1.7,1.7l0,0c0.1,0,0.1,0.1,0.1,0c0,0,0.1-0.1,0-0.1L100.9,206.8z     M108.9,212.8C108.9,212.8,108.9,212.9,108.9,212.8c0.1,0.1,0.2,0.1,0.2,0c0.2-0.3,0.4-0.6,0.4-0.8c0.1-0.2,0.1-0.4,0.2-0.6    c0-0.2,0-0.3,0-0.4s0-0.2-0.1-0.3c-0.2-0.5-0.5-1-1-1.5c-0.5-0.5-1.1-1.1-1.7-1.7l0,0l-0.8-0.7c-0.1,0-0.1-0.1-0.2,0    s-0.1,0.1,0,0.1L108.9,212.8z"/></g></g><path class="st0" d="M181.8,188.6c-4.5,8.3-13.2,14-23.3,14c-14.6,0-26.4-11.8-26.4-26.4s11.8-26.4,26.4-26.4  c4.1,0,7.9,0.9,11.4,2.6"/><circle class="st0" cx="220.9" cy="149.7" r="25.8"/><circle class="st0" cx="299" cy="148.2" r="25.8"/></svg>